<?xml version="1.0" encoding="UTF-8" standalone="no"?>
<svg
   viewBox="0 0 200.76819 26.1996"
   fill="none"
   version="1.1"
   id="svg64"
   sodipodi:docname="zondacrypto.svg"
   inkscape:version="1.4 (86a8ad7, 2024-10-11)"
   xmlns:inkscape="http://www.inkscape.org/namespaces/inkscape"
   xmlns:sodipodi="http://sodipodi.sourceforge.net/DTD/sodipodi-0.dtd"
   xmlns="http://www.w3.org/2000/svg"
   xmlns:svg="http://www.w3.org/2000/svg">
  <sodipodi:namedview
     id="namedview64"
     pagecolor="#ffffff"
     bordercolor="#000000"
     borderopacity="0.25"
     inkscape:showpageshadow="2"
     inkscape:pageopacity="0.0"
     inkscape:pagecheckerboard="0"
     inkscape:deskcolor="#d1d1d1"
     inkscape:zoom="7.063745"
     inkscape:cx="47.708404"
     inkscape:cy="15.64326"
     inkscape:window-width="1245"
     inkscape:window-height="981"
     inkscape:window-x="-8"
     inkscape:window-y="0"
     inkscape:window-maximized="0"
     inkscape:current-layer="svg64" />
  <g
     clip-path="none"
     id="g13"
     transform="translate(-24.3694,-18.4371)">
    <path
       d="m 224.68,25.0498 c -0.567,-0.6002 -7.551,-5.827 -8.348,-6.4053 -0.251,-0.1855 -0.829,-0.2074 -1.364,-0.2074 -0.534,0 -1.113,0.0219 -1.364,0.2074 -0.796,0.5783 -7.78,5.8051 -8.347,6.4053 -0.197,0.2073 -0.546,0.5347 -0.459,1.0475 0.033,0.1855 0.47,0.6875 0.928,1.2222 0.524,0.611 1.124,1.2439 1.713,1.2439 h 2.685 c 0.752,-0.0109 1.429,-0.3819 2.106,-0.6438 0.01,0.0109 0.032,0.0328 0.043,0.0437 -0.273,0.1964 -0.524,0.4037 -0.796,0.6001 -1.408,1.0694 -2.903,2.2151 -3.121,2.4334 -0.131,0.1418 -0.371,0.3601 -0.317,0.7093 0.022,0.1309 0.317,0.4692 0.633,0.8293 0.36,0.4146 0.764,0.8402 1.168,0.8402 h 10.235 c 0.404,0 0.808,-0.4365 1.168,-0.8402 0.316,-0.3601 0.611,-0.6984 0.633,-0.8293 0.054,-0.3492 -0.175,-0.5675 -0.317,-0.7093 -0.207,-0.2183 -1.702,-1.3749 -3.121,-2.4334 -0.272,-0.1964 -0.523,-0.4037 -0.796,-0.6001 0.011,-0.0109 0.033,-0.0328 0.043,-0.0437 0.688,0.2619 1.364,0.6329 2.106,0.6438 h 2.685 c 0.6,0 1.189,-0.6329 1.713,-1.2439 0.458,-0.5347 0.895,-1.0367 0.928,-1.2222 0.109,-0.5128 -0.241,-0.8402 -0.437,-1.0475 z"
       fill="url(#paint0_radial_1161_11059)"
       id="path1"
       style="fill:url(#paint0_radial_1161_11059)" />
    <path
       d="m 215.492,35.0341 c -0.098,-0.0654 -0.316,-0.0763 -0.524,-0.0763 -0.207,0 -0.425,0.0109 -0.523,0.0763 -0.306,0.2183 -2.958,2.2152 -3.176,2.4334 -0.076,0.0764 -0.207,0.1964 -0.174,0.4038 0.011,0.0763 0.174,0.2618 0.349,0.4692 0.196,0.2291 0.425,0.4692 0.655,0.4692 h 5.728 c 0.229,0 0.448,-0.2401 0.655,-0.4692 0.175,-0.2074 0.338,-0.3929 0.349,-0.4692 0.033,-0.1965 -0.098,-0.3165 -0.174,-0.4038 -0.208,-0.2182 -2.87,-2.2042 -3.165,-2.4334 z"
       fill="url(#paint1_radial_1161_11059)"
       id="path2"
       style="fill:url(#paint1_radial_1161_11059)" />
    <path
       d="M 28.1231,38.5806 24.5985,35.056 c -0.1746,-0.1746 -0.2291,-0.2946 -0.2291,-0.4692 v -0.0327 c 0,-0.2292 0.0545,-0.382 0.2618,-0.5784 l 3.6119,-3.6118 c 0.1746,-0.1746 0.3164,-0.2292 0.5783,-0.2292 h 5.205 c 0.5565,0 0.873,-0.3164 0.873,-0.8729 v -1.4513 c 0,-0.5565 -0.3165,-0.873 -0.873,-0.873 h -8.4349 c -0.2073,0 -0.3492,-0.1418 -0.3492,-0.3492 v -2.1278 c 0,-0.2073 0.1419,-0.3492 0.3492,-0.3492 h 7.682 c 0.2619,0 0.4037,0.0546 0.5783,0.2292 l 3.6119,3.6118 c 0.2073,0.2074 0.2619,0.3165 0.2619,0.5238 v 0.0546 c 0,0.2291 -0.0546,0.3819 -0.2619,0.5783 l -3.6119,3.6119 C 33.6772,32.8954 33.5354,32.95 33.2735,32.95 h -5.205 c -0.5565,0 -0.873,0.2946 -0.873,0.8402 v 0.3492 l 1.8005,1.8332 h 7.5074 c 0.2074,0 0.3492,0.1419 0.3492,0.3492 v 2.1278 c 0,0.2074 -0.1418,0.3492 -0.3492,0.3492 h -7.802 c -0.2292,0.0109 -0.4037,-0.0436 -0.5783,-0.2182 z"
       fill="url(#paint2_radial_1161_11059)"
       id="path3"
       style="fill:url(#paint2_radial_1161_11059)" />
    <path
       d="m 43.6289,38.5806 -3.6118,-3.6118 c -0.1746,-0.1746 -0.2292,-0.3492 -0.2292,-0.5783 v -5.8488 c 0,-0.2292 0.0546,-0.4038 0.2292,-0.5784 l 3.6118,-3.6118 c 0.1746,-0.1746 0.3492,-0.2292 0.5784,-0.2292 h 4.9758 c 0.2292,0 0.4038,0.0546 0.5784,0.2292 l 3.6118,3.6118 c 0.1746,0.1746 0.2292,0.3165 0.2292,0.5784 v 5.7615 c 0,0.2619 -0.0873,0.4037 -0.2619,0.5783 l -3.6883,3.6991 c -0.1746,0.1746 -0.3491,0.2292 -0.5783,0.2292 h -4.8558 c -0.2401,0 -0.4147,-0.0546 -0.5893,-0.2292 z m 4.7467,-2.597 2.4116,-2.477 v -5.707 c 0,-0.5565 -0.3165,-0.8729 -0.873,-0.8729 h -6.4271 c -0.5565,0 -0.873,0.3164 -0.873,0.8729 v 7.3001 c 0,0.5565 0.3165,0.873 0.873,0.873 h 4.8885 z"
       fill="url(#paint3_radial_1161_11059)"
       id="path4"
       style="fill:url(#paint3_radial_1161_11059)" />
    <path
       d="m 57.2471,38.4605 v -14 c 0,-0.2073 0.1418,-0.3492 0.3492,-0.3492 h 2.1278 c 0.2073,0 0.3492,0.1419 0.3492,0.3492 v 14 c 0,0.2074 -0.1419,0.3492 -0.3492,0.3492 h -2.1278 c -0.2074,0 -0.3492,-0.1418 -0.3492,-0.3492 z m 10.5627,0 v -10.65 c 0,-0.5565 -0.3164,-0.873 -0.8729,-0.873 h -5.9361 c -0.4692,0 -0.6438,-0.4365 -0.2946,-0.7856 l 1.8004,-1.8005 c 0.1746,-0.1746 0.3492,-0.2292 0.5784,-0.2292 h 3.1099 c 0.2291,0 0.4037,0.0546 0.5783,0.2292 l 3.6119,3.6118 c 0.1746,0.1746 0.2291,0.3492 0.2291,0.5784 v 9.9189 c 0,0.2074 -0.1418,0.3492 -0.3492,0.3492 h -2.1278 c -0.1855,0 -0.3274,-0.1418 -0.3274,-0.3492 z"
       fill="url(#paint4_radial_1161_11059)"
       id="path5"
       style="fill:url(#paint4_radial_1161_11059)" />
    <path
       d="m 87.9424,18.7863 v 19.6743 c 0,0.2073 -0.1419,0.3491 -0.3492,0.3491 h -2.1278 c -0.2074,0 -0.3492,-0.1418 -0.3492,-0.3491 V 27.7559 c 0,-0.6656 -0.2946,-0.8184 -0.873,-0.8184 h -6.4271 c -0.5565,0 -0.873,0.3165 -0.873,0.873 v 7.3001 c 0,0.5565 0.3165,0.8729 0.873,0.8729 h 6.3726 c 0.4692,0 0.6438,0.4365 0.2946,0.7857 l -1.8005,1.8005 c -0.1746,0.1746 -0.3492,0.2291 -0.5783,0.2291 h -3.5464 c -0.2291,0 -0.4037,-0.0545 -0.5783,-0.2291 l -3.6119,-3.6119 c -0.1746,-0.1746 -0.2291,-0.3164 -0.2291,-0.5783 v -5.8488 c 0,-0.2619 0.0545,-0.4038 0.2291,-0.5783 l 3.6119,-3.6119 c 0.1746,-0.1746 0.3492,-0.2292 0.5783,-0.2292 h 4.3648 c 0.2619,0 0.4037,0.0546 0.5783,0.2292 l 1.6259,1.6259 v -7.1801 c 0,-0.2073 0.1418,-0.3492 0.3492,-0.3492 h 2.1278 c 0.1964,0 0.3383,0.1528 0.3383,0.3492 z"
       fill="url(#paint5_radial_1161_11059)"
       id="path6"
       style="fill:url(#paint5_radial_1161_11059)" />
    <path
       d="m 105.107,28.5416 v 9.9189 c 0,0.2074 -0.142,0.3492 -0.349,0.3492 h -2.128 c -0.207,0 -0.349,-0.1418 -0.349,-0.3492 V 33.452 c 0,-0.6657 -0.295,-0.8184 -0.873,-0.8184 h -6.5802 c -0.5565,0 -0.8729,0.3164 -0.8729,0.8729 v 1.6041 c 0,0.5565 0.3164,0.8729 0.8729,0.8729 h 6.5142 c 0.469,0 0.644,0.4365 0.295,0.7857 l -1.7897,1.8114 c -0.1746,0.1746 -0.3492,0.2291 -0.5783,0.2291 h -3.6992 c -0.2291,0 -0.4037,-0.0545 -0.5783,-0.2291 L 91.3796,34.9687 C 91.205,34.7941 91.1505,34.6523 91.1505,34.4122 v -0.2291 c 0,-0.1746 0.0545,-0.3165 0.2619,-0.5238 l 3.6118,-3.6119 c 0.1746,-0.1746 0.3165,-0.2291 0.5784,-0.2291 h 4.4844 c 0.262,0 0.404,0.0545 0.579,0.2291 l 1.626,1.6259 v -3.8737 c 0,-0.5565 -0.317,-0.873 -0.873,-0.873 h -6.2857 c -0.5565,0 -0.8729,0.3165 -0.8729,0.873 v 1.484 c 0,0.2073 -0.1419,0.3492 -0.3492,0.3492 h -2.1278 c -0.2074,0 -0.3492,-0.1419 -0.3492,-0.3492 v -0.7529 c 0,-0.2292 0.0546,-0.382 0.2619,-0.5784 l 3.6118,-3.6118 c 0.1746,-0.1746 0.3165,-0.2292 0.5784,-0.2292 h 4.7687 c 0.262,0 0.404,0.0546 0.578,0.2292 l 3.612,3.6118 c 0.207,0.2074 0.262,0.3492 0.262,0.5893 z"
       fill="url(#paint6_radial_1161_11059)"
       id="path7"
       style="fill:url(#paint6_radial_1161_11059)" />
    <path
       d="m 112.56,38.5806 -3.699,-3.6991 c -0.175,-0.1746 -0.262,-0.3164 -0.262,-0.5783 v -5.7615 c 0,-0.2619 0.054,-0.4038 0.229,-0.5784 l 3.612,-3.6118 c 0.174,-0.1746 0.349,-0.2292 0.578,-0.2292 h 4.485 c 0.174,0 0.294,0.0328 0.436,0.1746 l 3.579,3.5246 c 0.12,0.12 0.175,0.2619 0.175,0.4364 v 1.0149 c 0,0.2073 -0.142,0.3491 -0.349,0.3491 l -2.128,0.0328 c -0.207,0 -0.349,-0.1419 -0.349,-0.3492 V 27.265 c 0,-0.2074 -0.142,-0.3492 -0.349,-0.3492 l -6.231,0.0327 c -0.557,0 -0.873,0.3165 -0.873,0.873 v 5.7069 l 2.412,2.477 h 4.681 c 0.207,0 0.349,-0.1418 0.349,-0.3492 v -2.095 c 0,-0.2074 0.142,-0.3492 0.349,-0.3492 h 2.139 c 0.207,0 0.349,0.1418 0.349,0.3492 v 1.0802 c 0,0.1746 -0.055,0.3165 -0.175,0.4365 l -3.579,3.5791 c -0.142,0.1419 -0.262,0.1746 -0.436,0.1746 h -4.365 c -0.229,-0.0218 -0.404,-0.0764 -0.578,-0.251 z"
       fill="url(#paint7_radial_1161_11059)"
       id="path8"
       style="fill:url(#paint7_radial_1161_11059)" />
    <path
       d="m 124.89,38.4605 v -14 c 0,-0.2073 0.142,-0.3492 0.349,-0.3492 h 2.128 c 0.208,0 0.349,0.1419 0.349,0.3492 v 14 c 0,0.2074 -0.141,0.3492 -0.349,0.3492 h -2.128 c -0.196,0 -0.349,-0.1418 -0.349,-0.3492 z m 8.555,-7.1255 v -3.5245 c 0,-0.5565 -0.316,-0.873 -0.873,-0.873 h -3.928 c -0.469,0 -0.644,-0.4365 -0.295,-0.7856 l 1.801,-1.8005 c 0.174,-0.1746 0.349,-0.2292 0.578,-0.2292 h 1.102 c 0.229,0 0.404,0.0546 0.579,0.2292 l 3.611,3.6118 c 0.175,0.1746 0.23,0.3492 0.23,0.5784 v 2.7934 c 0,0.2074 -0.142,0.3492 -0.35,0.3492 h -2.127 c -0.186,0 -0.328,-0.1527 -0.328,-0.3492 z"
       fill="url(#paint8_radial_1161_11059)"
       id="path9"
       style="fill:url(#paint8_radial_1161_11059)" />
    <path
       d="m 142.906,44.3966 -3.612,-3.6118 c -0.207,-0.2073 -0.262,-0.3492 -0.262,-0.5783 v -0.753 c 0,-0.2073 0.142,-0.3492 0.349,-0.3492 h 2.128 c 0.207,0 0.349,0.1419 0.349,0.3492 v 1.4841 c 0,0.5565 0.317,0.8729 0.873,0.8729 h 5.707 c 0.557,0 0.873,-0.3164 0.873,-0.8729 V 24.4605 c 0,-0.2073 0.142,-0.3492 0.349,-0.3492 h 2.128 c 0.208,0 0.349,0.1419 0.349,0.3492 v 15.746 c 0,0.2291 -0.054,0.3819 -0.261,0.5783 l -3.612,3.6118 c -0.175,0.1746 -0.317,0.2292 -0.579,0.2292 h -4.19 c -0.273,0 -0.415,-0.0546 -0.589,-0.2292 z m -0.033,-5.816 -3.612,-3.6119 c -0.174,-0.1746 -0.229,-0.3492 -0.229,-0.5783 v -9.919 c 0,-0.2073 0.142,-0.3492 0.349,-0.3492 h 2.128 c 0.207,0 0.349,0.1419 0.349,0.3492 v 10.6501 c 0,0.5565 0.317,0.8729 0.873,0.8729 h 5.62 c 0.469,0 0.644,0.4365 0.295,0.7857 l -1.801,1.8005 c -0.175,0.1746 -0.349,0.2291 -0.578,0.2291 h -2.794 c -0.251,0 -0.425,-0.0545 -0.6,-0.2291 z"
       fill="url(#paint9_radial_1161_11059)"
       id="path10"
       style="fill:url(#paint9_radial_1161_11059)" />
    <path
       d="m 170.306,28.5416 v 5.8488 c 0,0.2619 -0.055,0.4037 -0.229,0.5783 l -3.612,3.6119 c -0.175,0.1746 -0.349,0.2291 -0.579,0.2291 h -4.364 c -0.262,0 -0.404,-0.0545 -0.579,-0.2291 l -1.626,-1.6259 v 7.3328 c 0,0.2074 -0.141,0.3492 -0.349,0.3492 h -2.128 c -0.207,0 -0.349,-0.1418 -0.349,-0.3492 v -19.827 c 0,-0.2073 0.142,-0.3492 0.349,-0.3492 h 2.128 c 0.208,0 0.349,0.1419 0.349,0.3492 v 10.7046 c 0,0.6657 0.295,0.8184 0.873,0.8184 h 6.428 c 0.556,0 0.872,-0.3164 0.872,-0.8729 v -7.3001 c 0,-0.5565 -0.316,-0.873 -0.872,-0.873 h -6.373 c -0.469,0 -0.644,-0.4365 -0.295,-0.7856 l 1.801,-1.8005 c 0.174,-0.1746 0.349,-0.2292 0.578,-0.2292 h 3.547 c 0.229,0 0.403,0.0546 0.578,0.2292 l 3.612,3.6118 c 0.185,0.1637 0.24,0.3165 0.24,0.5784 z"
       fill="url(#paint10_radial_1161_11059)"
       id="path11"
       style="fill:url(#paint10_radial_1161_11059)" />
    <path
       d="m 184.306,34.8815 -3.667,3.6991 c -0.174,0.1746 -0.316,0.2292 -0.578,0.2292 h -1.168 c -0.261,0 -0.403,-0.0546 -0.578,-0.2292 l -3.612,-3.6118 c -0.207,-0.2074 -0.262,-0.3492 -0.262,-0.5784 v -7.4528 h -1.887 c -0.208,0 -0.35,-0.1419 -0.35,-0.3492 v -2.1278 c 0,-0.2074 0.142,-0.3492 0.35,-0.3492 h 1.887 v -3.35 c 0,-0.2073 0.142,-0.3492 0.35,-0.3492 h 2.127 c 0.208,0 0.35,0.1419 0.35,0.3492 v 14.3492 c 0,0.5565 0.316,0.873 0.873,0.873 h 1.189 l 3.023,-3.0226 c 0.141,-0.1419 0.349,-0.1419 0.491,0 l 1.451,1.4294 c 0.153,0.1419 0.153,0.3492 0.011,0.4911 z m -6.405,-8.7296 1.8,-1.8005 c 0.175,-0.1745 0.349,-0.2291 0.578,-0.2291 h 3.405 c 0.207,0 0.349,0.1419 0.349,0.3492 v 2.1169 c 0,0.2073 -0.142,0.3492 -0.349,0.3492 h -5.489 c -0.469,0 -0.644,-0.4365 -0.294,-0.7857 z"
       fill="url(#paint11_radial_1161_11059)"
       id="path12"
       style="fill:url(#paint11_radial_1161_11059)" />
    <path
       d="m 189.718,38.5806 -3.612,-3.6118 c -0.174,-0.1746 -0.229,-0.3492 -0.229,-0.5783 v -5.8488 c 0,-0.2292 0.055,-0.4038 0.229,-0.5784 l 3.612,-3.6118 c 0.175,-0.1746 0.349,-0.2292 0.578,-0.2292 h 4.976 c 0.229,0 0.404,0.0546 0.579,0.2292 l 3.612,3.6118 c 0.174,0.1746 0.229,0.3165 0.229,0.5784 v 5.7615 c 0,0.2619 -0.088,0.4037 -0.262,0.5783 l -3.699,3.6991 c -0.175,0.1746 -0.35,0.2292 -0.579,0.2292 h -4.856 c -0.229,0 -0.403,-0.0546 -0.578,-0.2292 z m 4.736,-2.597 2.411,-2.477 v -5.707 c 0,-0.5565 -0.316,-0.8729 -0.872,-0.8729 h -6.428 c -0.556,0 -0.873,0.3164 -0.873,0.8729 v 7.3001 c 0,0.5565 0.317,0.873 0.873,0.873 h 4.889 z"
       fill="url(#paint12_radial_1161_11059)"
       id="path13"
       style="fill:url(#paint12_radial_1161_11059)" />
  </g>
  <defs
     id="defs64">
    <radialGradient
       id="paint0_radial_1161_11059"
       cx="0"
       cy="0"
       r="1"
       gradientUnits="userSpaceOnUse"
       gradientTransform="matrix(24.8136,0,0,24.8136,214.901,39.8072)">
      <stop
         stop-color="#F8AA15"
         id="stop13" />
      <stop
         offset="0.1"
         stop-color="#FF5094"
         id="stop14" />
      <stop
         offset="0.32"
         stop-color="#6A58FF"
         id="stop15" />
      <stop
         offset="1"
         stop-color="#453CB0"
         id="stop16" />
    </radialGradient>
    <radialGradient
       id="paint1_radial_1161_11059"
       cx="0"
       cy="0"
       r="1"
       gradientUnits="userSpaceOnUse"
       gradientTransform="matrix(22.5072,0,0,22.5072,214.968,41.0373)">
      <stop
         stop-color="#F8AA15"
         id="stop17" />
      <stop
         offset="0.1"
         stop-color="#FF5094"
         id="stop18" />
      <stop
         offset="0.32"
         stop-color="#6A58FF"
         id="stop19" />
      <stop
         offset="1"
         stop-color="#453CB0"
         id="stop20" />
    </radialGradient>
    <radialGradient
       id="paint2_radial_1161_11059"
       cx="0"
       cy="0"
       r="1"
       gradientUnits="userSpaceOnUse"
       gradientTransform="matrix(108.385,0,0,108.407,111.961,44.4734)">
      <stop
         stop-color="#F8AA15"
         id="stop21" />
      <stop
         offset="0.1"
         stop-color="#FF5094"
         id="stop22" />
      <stop
         offset="0.32"
         stop-color="#6A58FF"
         id="stop23" />
      <stop
         offset="1"
         stop-color="#453CB0"
         id="stop24" />
    </radialGradient>
    <radialGradient
       id="paint3_radial_1161_11059"
       cx="0"
       cy="0"
       r="1"
       gradientUnits="userSpaceOnUse"
       gradientTransform="matrix(108.385,0,0,108.407,111.961,44.4735)">
      <stop
         stop-color="#F8AA15"
         id="stop25" />
      <stop
         offset="0.1"
         stop-color="#FF5094"
         id="stop26" />
      <stop
         offset="0.32"
         stop-color="#6A58FF"
         id="stop27" />
      <stop
         offset="1"
         stop-color="#453CB0"
         id="stop28" />
    </radialGradient>
    <radialGradient
       id="paint4_radial_1161_11059"
       cx="0"
       cy="0"
       r="1"
       gradientUnits="userSpaceOnUse"
       gradientTransform="matrix(108.385,0,0,108.407,111.961,44.4734)">
      <stop
         stop-color="#F8AA15"
         id="stop29" />
      <stop
         offset="0.1"
         stop-color="#FF5094"
         id="stop30" />
      <stop
         offset="0.32"
         stop-color="#6A58FF"
         id="stop31" />
      <stop
         offset="1"
         stop-color="#453CB0"
         id="stop32" />
    </radialGradient>
    <radialGradient
       id="paint5_radial_1161_11059"
       cx="0"
       cy="0"
       r="1"
       gradientUnits="userSpaceOnUse"
       gradientTransform="matrix(108.385,0,0,108.407,111.961,44.4734)">
      <stop
         stop-color="#F8AA15"
         id="stop33" />
      <stop
         offset="0.1"
         stop-color="#FF5094"
         id="stop34" />
      <stop
         offset="0.32"
         stop-color="#6A58FF"
         id="stop35" />
      <stop
         offset="1"
         stop-color="#453CB0"
         id="stop36" />
    </radialGradient>
    <radialGradient
       id="paint6_radial_1161_11059"
       cx="0"
       cy="0"
       r="1"
       gradientUnits="userSpaceOnUse"
       gradientTransform="matrix(108.385,0,0,108.407,111.961,44.4734)">
      <stop
         stop-color="#F8AA15"
         id="stop37" />
      <stop
         offset="0.1"
         stop-color="#FF5094"
         id="stop38" />
      <stop
         offset="0.32"
         stop-color="#6A58FF"
         id="stop39" />
      <stop
         offset="1"
         stop-color="#453CB0"
         id="stop40" />
    </radialGradient>
    <radialGradient
       id="paint7_radial_1161_11059"
       cx="0"
       cy="0"
       r="1"
       gradientUnits="userSpaceOnUse"
       gradientTransform="matrix(108.385,0,0,108.407,111.961,44.4735)">
      <stop
         stop-color="#F8AA15"
         id="stop41" />
      <stop
         offset="0.1"
         stop-color="#FF5094"
         id="stop42" />
      <stop
         offset="0.32"
         stop-color="#6A58FF"
         id="stop43" />
      <stop
         offset="1"
         stop-color="#453CB0"
         id="stop44" />
    </radialGradient>
    <radialGradient
       id="paint8_radial_1161_11059"
       cx="0"
       cy="0"
       r="1"
       gradientUnits="userSpaceOnUse"
       gradientTransform="matrix(108.385,0,0,108.407,111.961,44.4734)">
      <stop
         stop-color="#F8AA15"
         id="stop45" />
      <stop
         offset="0.1"
         stop-color="#FF5094"
         id="stop46" />
      <stop
         offset="0.32"
         stop-color="#6A58FF"
         id="stop47" />
      <stop
         offset="1"
         stop-color="#453CB0"
         id="stop48" />
    </radialGradient>
    <radialGradient
       id="paint9_radial_1161_11059"
       cx="0"
       cy="0"
       r="1"
       gradientUnits="userSpaceOnUse"
       gradientTransform="matrix(108.385,0,0,108.407,111.961,44.4734)">
      <stop
         stop-color="#F8AA15"
         id="stop49" />
      <stop
         offset="0.1"
         stop-color="#FF5094"
         id="stop50" />
      <stop
         offset="0.32"
         stop-color="#6A58FF"
         id="stop51" />
      <stop
         offset="1"
         stop-color="#453CB0"
         id="stop52" />
    </radialGradient>
    <radialGradient
       id="paint10_radial_1161_11059"
       cx="0"
       cy="0"
       r="1"
       gradientUnits="userSpaceOnUse"
       gradientTransform="matrix(108.385,0,0,108.407,111.961,44.4734)">
      <stop
         stop-color="#F8AA15"
         id="stop53" />
      <stop
         offset="0.1"
         stop-color="#FF5094"
         id="stop54" />
      <stop
         offset="0.32"
         stop-color="#6A58FF"
         id="stop55" />
      <stop
         offset="1"
         stop-color="#453CB0"
         id="stop56" />
    </radialGradient>
    <radialGradient
       id="paint11_radial_1161_11059"
       cx="0"
       cy="0"
       r="1"
       gradientUnits="userSpaceOnUse"
       gradientTransform="matrix(108.385,0,0,108.407,111.961,44.4735)">
      <stop
         stop-color="#F8AA15"
         id="stop57" />
      <stop
         offset="0.1"
         stop-color="#FF5094"
         id="stop58" />
      <stop
         offset="0.32"
         stop-color="#6A58FF"
         id="stop59" />
      <stop
         offset="1"
         stop-color="#453CB0"
         id="stop60" />
    </radialGradient>
    <radialGradient
       id="paint12_radial_1161_11059"
       cx="0"
       cy="0"
       r="1"
       gradientUnits="userSpaceOnUse"
       gradientTransform="matrix(108.385,0,0,108.407,111.961,44.4735)">
      <stop
         stop-color="#F8AA15"
         id="stop61" />
      <stop
         offset="0.1"
         stop-color="#FF5094"
         id="stop62" />
      <stop
         offset="0.32"
         stop-color="#6A58FF"
         id="stop63" />
      <stop
         offset="1"
         stop-color="#453CB0"
         id="stop64" />
    </radialGradient>
  </defs>
</svg>
