<svg version="1.2" xmlns="http://www.w3.org/2000/svg" viewBox="0 0 700 300" width="700" height="300">
	<defs>
		<clipPath clipPathUnits="userSpaceOnUse" id="cp1">
			<path d="m26.16 48.74h647.84v201.27h-647.84z"/>
		</clipPath>
	</defs>
	<style>
		.s0 { fill: #010202 } 
	</style>
	<g>
		<g id="Clip-Path" clip-path="url(#cp1)">
			<g>
				<path class="s0" d="m280.09 149.84c4.87-2.77 8.77-6.21 11.62-10.28 3.23-4.59 4.94-10.08 4.89-15.7 0-10.83-4.05-19.29-12.03-25.13-7.89-5.79-18.74-8.71-32.26-8.71h-48.9v125.49h50.85c14.24 0 25.64-3.31 33.89-9.84 8.31-6.59 12.53-15.82 12.53-27.44 0-7.08-1.99-13.16-5.89-18.08-3.51-4.41-8.45-7.87-14.7-10.31zm-50.23-37.2h20.31c6.37 0 11.18 1.23 14.3 3.67 3.08 2.39 4.59 5.55 4.59 9.62 0 4.09-1.51 7.4-4.59 9.81-3.13 2.43-7.93 3.66-14.3 3.66h-20.31c0 0 0-26.76 0-26.76zm38.24 76c-3.52 2.82-8.9 4.25-15.98 4.25h-22.26v-30.71h22.27c7.07 0 12.45 1.38 15.99 4.09 3.5 2.7 5.2 6.27 5.2 10.92 0 4.89-1.7 8.64-5.22 11.45zm68.33-66.97h-26.64v93.83h26.64zm263.11 14.12c-4.26-5.06-9.64-9.06-15.71-11.7-6.2-2.75-13.18-4.14-20.72-4.14-9.25 0-17.59 2.1-24.8 6.24-7.13 4.06-13.03 9.99-17.05 17.15-4.09 7.23-6.16 15.61-6.16 24.91 0 9.31 2.01 18.24 5.98 25.58 3.87 7.25 9.77 13.22 16.98 17.17 7.28 4.02 15.82 6.06 25.41 6.06 11.76 0 21.74-2.96 29.69-8.8 7.64-5.62 12.89-13.54 15.76-23.46h-26.82c-1.41 3.38-3.4 6.25-6.25 8.28-3.36 2.39-7.71 3.6-12.92 3.6-4.52 0-8.39-1.09-11.51-3.26-3.13-2.17-5.52-5.37-7.09-9.52q-1.51-4.11-2.01-8.47h67.05l0.13-0.83c1.2-7.57 0.89-14.74-0.91-21.31-1.7-6.43-4.8-12.4-9.05-17.5zm-56.78 22.27q0.61-2.92 1.67-5.71c1.64-4.21 3.99-7.45 7.02-9.62 3.01-2.16 6.76-3.25 11.14-3.25 5.49 0 10 1.78 13.4 5.28 3.23 3.33 5.05 7.89 5.44 13.29zm-205.78-68.04h-27.75v22.62h27.75zm145.88 42.3c-3-3.67-6.76-6.65-11.01-8.74-4.97-2.41-10.79-3.63-17.29-3.63-7.96 0-15.1 1.97-21.2 5.83-6.1 3.87-10.94 9.33-14.37 16.22-3.43 6.88-5.16 14.96-5.16 24.01 0 9.06 1.82 16.66 5.43 23.59 3.62 6.95 8.63 12.49 14.9 16.46 6.28 3.98 13.44 6.01 21.29 6.01 5.92 0 11.34-1.28 16.08-3.82 3.66-1.93 6.85-4.62 9.37-7.89v10.21c0 6.33-1.66 11.2-4.93 14.43-3.28 3.24-8.28 4.87-14.84 4.87-5.66 0-10.11-1.28-13.22-3.82-2.55-2.08-4.77-4.79-5.29-10.55h-25.69c0.24 8.06 2.6 13.49 5.95 18.25 3.74 5.33 9.01 9.5 15.68 12.38 6.59 2.84 14.25 4.29 22.74 4.29 14.27 0 25.62-3.59 33.74-10.65 8.18-7.1 12.32-17.05 12.32-29.55v-88.56h-24.5zm-4.69 46.16c-1.54 3.33-4.01 6.14-7.09 8.11-3.02 1.89-6.67 2.86-10.83 2.86-6.04 0-10.72-2.06-14.34-6.28-3.61-4.21-5.44-9.98-5.44-17.16 0-7.18 1.82-12.96 5.43-17.16 3.58-4.16 8.4-6.28 14.34-6.28 5.94 0 11.19 2.14 14.88 6.37 3.72 4.27 5.61 10.07 5.61 17.23 0 4.65-0.86 8.78-2.56 12.31zm195.84-34.36v-22.44h-19.23v-31.66h-26.46v31.66h-16.42v22.44h16.42v36.73c0 20.42 4.03 35.43 29.1 34.96l15.74-0.31v-21.03h-7.81c-11.15 0-10.52-6.5-10.52-18.57l-0.04-31.78zm-266.66 0v-22.44h-19.23v-31.66h-26.46v31.66h-16.43v22.44h16.42v36.73c0 20.42 4.03 35.43 29.1 34.96l15.74-0.31v-21.03h-7.79c-11.15 0-10.53-6.5-10.53-18.57l-0.04-31.78zm-314.77-31.48h39.96l40.88 40.61c2.66 2.64 2.67 6.94 0.03 9.6l-52.42 52.69h-41.15l12.45-12.1 45.69-45.4-45.11-45.41"/>
				<path class="s0" d="m108.99 157.93h-39.95l-40.88-40.61c-2.66-2.64-2.67-6.93-0.03-9.59l0.01-0.01 52.42-52.69h41.16l-12.44 12.1-45.69 45.4 45.12 45.4"/>
			</g>
		</g>
	</g>
</svg>