<svg version="1.2" xmlns="http://www.w3.org/2000/svg" viewBox="0 0 2502 1502" width="2502" height="1502">
	<style>
		.s0 { fill: #2a54fe } 
		.s1 { fill: #000000 } 
		.s2 { fill: #010101 } 
		.s3 { fill: #040404 } 
		.s4 { fill: #2952f7 } 
		.s5 { fill: #274eeb } 
		.s6 { fill: #2850f1 } 
		.s7 { fill: #2448d9 } 
		.s8 { fill: #2448da } 
		.s9 { fill: #264ce6 } 
		.s10 { fill: #254ae0 } 
		.s11 { fill: #264ae0 } 
		.s12 { fill: #264ce5 } 
		.s13 { fill: #2446d4 } 
		.s14 { fill: #2346d4 } 
		.s15 { fill: #2244cf } 
		.s16 { fill: #2244ce } 
		.s17 { fill: #fefefe } 
		.s18 { fill: #fdfdfd } 
	</style>
	<g>
		<path fill-rule="evenodd" class="s0" d="m534.94 704.19c65.75 87.91 154.61 134.63 262.68 146.22 39.52 4.23 39.61 3.35 39.62 42.6 0 39.68-1.07 79.4 0.44 119.02 0.77 20.29-7.13 24.52-25.31 23.29-143.27-9.71-268.39-60.71-372.14-161.44-5.83-5.66-10.2-15.03-21.16-12.58-7.18-3.39-10.97-10.25-16.17-15.68-7.41-10.53-15.36-20.63-23.57-30.54-24.04-34.02-48.15-68-66.31-105.7-58.54-83.45-141.57-126.52-239.47-144.64-19.79-3.66-46.98 1.64-58.1-9.66-13.11-13.31-3.69-40.54-4.17-61.7-0.66-29.1 1.41-58.35-0.66-87.32-1.66-23.13 5.65-29.68 28.66-28.17 140.93 9.2 263.12 60.91 366.01 157.87 6.29 5.94 12.94 11.52 19.42 17.26 11.65 3.86 19.32 12.53 26.56 21.78 5.36 8.8 12.34 16.39 18.64 24.51 23.58 33.79 48.26 66.88 65.03 104.88z"/>
		<path fill-rule="evenodd" class="s1" d="m980.8 701.29c0-64.97 0.55-129.96-0.36-194.92-0.26-17.55 4.35-23.41 22.69-22.98 53.3 1.26 106.67-0.15 160 0.57 106.46 1.43 164.55 102.16 111.15 193.88-7.54 12.93-4.13 17.37 4.41 25.59 40.69 39.1 51.23 86.74 30.53 138.16-20.84 51.75-62.78 77.28-118.5 77.93-63.03 0.73-126.08-0.37-189.1 0.55-16.45 0.24-21.42-4.31-21.19-20.95 0.9-65.94 0.37-131.89 0.37-197.83zm1043.3-93.21c24.26 0 48.52 0.1 72.78-0.06 9.26-0.06 19.68 0.14 16.4 12.97-5.52 21.59 15.98 49.1-14.85 65.55-6.12 3.25 1.37 10.23 3.29 15.21 20.16 52.39 16.47 102.4-14.57 149.8-4.45 6.79-9.86 11.04-2.32 21.83 55.46 79.41 21.38 181.32-71.4 216.94-93.99 36.08-200.94-28.54-209.73-125.71-1.58-17.46 2.85-22.56 19.4-20.87q3.99 0.41 7.99 0.62 4 0.21 8.01 0.21 4 0 8-0.2 4-0.2 7.99-0.61c22.83-2.35 35.94 1.74 45.22 28.31 15.54 44.49 80.99 51.06 111.09 14.77 20.58-24.81 13.55-50.96-16.44-61.84-13.03-4.74-26.45-5.04-40.09-5.43-84.41-2.44-149.54-67.72-152.54-152.44-2.83-80.07 58.1-149.37 140.37-157.37 26.89-2.61 54.25-0.41 81.39-0.41q0-0.64 0.01-1.27zm474.73 311.61c-30.3 0-60.08-0.52-89.83 0.23-12.73 0.32-16.04-8.83-21-16.77-22.05-35.26-43.95-70.6-68.87-110.67-23.11 37.14-45.61 71.18-65.71 106.59-9.45 16.65-20.57 22.32-39.21 21.05-24.78-1.7-49.77-0.42-78.91-0.42 40.66-65.34 78.66-127.82 118.35-189.21 10.39-16.08 10.97-26.98 0.24-43.46-39.58-60.79-77.13-122.88-118.56-189.5 34.99 0 66.23-0.2 97.48 0.1 10.78 0.11 13.23 10.26 17.67 17.24 22.76 35.8 45.14 71.83 68.72 109.47 23.53-37.74 46.27-72.47 67.01-108.34 8.5-14.68 18.39-19.82 34.88-18.94 24.95 1.33 50.03 0.35 74.55 0.35 5.27 10.85-2.74 16.01-6.36 21.88-34.51 56.01-68.73 112.23-104.73 167.27-10.52 16.09-11.07 27.29-0.47 43.49 34.94 53.45 68.22 107.98 101.79 162.3 4.88 7.89 12.53 14.69 12.96 27.34zm-1008.37-154.75c0-43.63 1.65-87.36-0.66-130.88-1.25-23.43 7.28-29.61 27.7-25.91 22.59 4.09 47.92-10.48 68.44 10.41 2 2.05 10.61-2.25 16.09-3.81 85.73-24.28 169.87 18.96 165.47 126.42-2.09 51.32-0.95 102.8-0.02 154.18 0.32 17.56-2.45 25.13-23.2 24.97-67.45-0.53-67.46 0.51-67.46-67.07 0-37.81 0.24-75.64-0.06-113.46-0.27-33.72-17.83-54.7-45.99-55.84-29.09-1.19-49.18 20-49.76 55.33-0.86 52.36-0.71 104.74 0.05 157.09 0.23 15.98-1.36 23.84-21.26 23.93-69.35 0.33-69.35 1.29-69.35-68.07z"/>
		<path fill-rule="evenodd" class="s0" d="m545.87 459.06c82.64-53.17 174.09-76.68 271.35-81.18 14.52-0.66 20.64 3.25 20.34 19.16-0.91 48.39-0.57 96.81-0.16 145.22 0.1 11.93-3.3 17.09-16.26 17.51-50.75 1.64-98.98 15.14-146.08 33.23-14.36-12.16-21.69-29.5-32.39-44.35-20.19-27.99-46.28-49.25-74.77-67.96-8.78-5.77-19.33-9.7-22.03-21.63zm-247.62 496.49c-81.81 52.9-173.32 73.07-268.87 79.8-13.75 0.96-18.69-3.8-18.51-17.87 0.66-48.39 0.73-96.79-0.04-145.17-0.23-14.76 3.85-20.28 19.37-20.4 50.03-0.41 97.19-14.47 143.15-33.16 14.71 6.45 18.2 21.88 26.37 33.45 21.27 30.09 43.51 58.93 75.77 78.47 9.72 5.89 19.89 12.29 22.76 24.88z"/>
		<path fill-rule="evenodd" class="s2" d="m1359.35 762.48c0-44.52 0.68-89.04-0.35-133.54-0.38-16.67 5.12-20.96 21.43-21.31 69.28-1.49 69.26-2.05 69.26 68.27 0 73.55-0.7 147.11 0.49 220.64 0.31 19.15-5.1 23.79-23.85 23.66-66.97-0.47-66.98 0.29-66.98-67.72z"/>
		<path fill-rule="evenodd" class="s3" d="m1449.73 530.32c0 44.86 0 44.86-54.46 44.85-36 0-36 0-35.99-55.24 0.02-36.17 0.02-36.17 57.99-36.14 32.46 0.01 32.46 0.01 32.46 46.53z"/>
		<path fill-rule="evenodd" class="s4" d="m298.25 955.55c-54.68-33.68-98.43-77.35-124.9-136.8l23.66-11.18c21.03 25.8 36.51 55.71 61.29 78.89 21.09 19.72 47.2 32.23 68.59 51.23-7.66 8.97-17.67 14.19-28.64 17.86zm247.62-496.49c47.27 27.14 89.94 59.19 117.49 107.92 4.75 8.4 10.72 16.02 11.69 26.02q-11.68 5.9-23.36 11.8c-28.07-47.02-63.24-87.08-111.17-115.01-7.04-4.09-15.98-8.62-11.7-20.04 4.3-5.77 9.87-9.5 17.05-10.69z"/>
		<path fill-rule="evenodd" class="s5" d="m477.78 506.46c3.73-6.13 9.17-10.03 15.92-12.24 8.76-5.23 17.92-6.44 27.46-2.41 49.41 20.8 87.92 53.69 112.27 102.01 3.38 6.72 6.82 14.09 0.83 21.47q-8.75 5.73-17.48 11.44c-10.76-6-14.45-17.69-21.5-26.68-24.58-31.38-51.82-59.35-89.72-75.05-10.17-4.22-23.06-5.65-27.78-18.54z"/>
		<path fill-rule="evenodd" class="s6" d="m634.25 615.29c-26.26-64.26-69.9-108.35-140.55-121.07 10.38-10.05 20.73-20.15 35.11-24.47 30.81 25.76 66.12 46.19 91.79 78.01 13.85 17.16 30.52 32.69 31.08 57.04z"/>
		<path fill-rule="evenodd" class="s7" d="m447.7 576.34c-9.61-5.86-17.41-13.5-22.99-23.32q8.22-6.93 16.43-13.85c59.87 5.76 104.21 35.89 135.22 86.6 4.98 8.13 10.04 16.68 6 27.03-3.94 7.72-10.5 12.61-17.88 16.63-8.45-2.14-11.78-9.31-15.37-16.03-22.02-41.23-54.52-68.6-101.41-77.06z"/>
		<path fill-rule="evenodd" class="s5" d="m366.99 908.29c-3.61 6.32-8.97 10.32-15.99 12.15-6.43 2.01-12.58 4.41-19.76 2.89-49.54-10.48-107.63-73.25-116.33-126.04 4.36-6.1 10.53-9.46 17.48-11.66 9.74 1.75 14.44 9.32 18.81 16.88 23.5 40.76 55.9 71.63 99.29 90.6 7.09 3.11 14.2 6.66 16.5 15.18z"/>
		<path fill-rule="evenodd" class="s6" d="m214.91 797.29c7.69 13.41 15.55 26.72 23.03 40.24 24.9 45.13 64.1 70.66 113.07 82.91-6.46 7.97-14.21 14.13-24.12 17.26-62.27-24.45-105.92-67.46-129.88-130.13q8.95-5.15 17.9-10.28z"/>
		<path fill-rule="evenodd" class="s8" d="m407.33 843.76c7.55 3.41 11.41 9.29 11.73 17.55q-6.58 5.75-13.17 11.52c-47.98 3.15-82.35-22.29-110.55-56.32-13.7-16.53-33.59-32.45-27.7-59.11q7.59-6.69 15.19-13.38c14.95-2.8 17.23 10.29 21.27 18.75 21.12 44.27 57.62 68.27 103.23 80.99z"/>
		<path fill-rule="evenodd" class="s9" d="m477.78 506.46c62.24 21.7 112.38 57.4 139 120.27q-8.83 6.41-17.64 12.81c-9.56-2.38-13.05-10.77-17.44-18.04-27.08-44.9-64.55-75.46-117.05-85.55-4.77-0.91-9.19-2.68-12.14-6.92 6.5-9.68 14.81-17.32 25.27-22.57z"/>
		<path fill-rule="evenodd" class="s10" d="m452.51 529.04c73.44 4.24 116.35 49 146.63 110.5q-8.39 6.63-16.78 13.26c-24.7-56.4-66.84-91.88-126.97-105.57-5.8-1.32-11.28-2.18-14.25-8.06 2.16-5.2 5.82-8.74 11.37-10.13z"/>
		<path fill-rule="evenodd" class="s11" d="m267.64 757.4c25.05 63.67 72.06 101.03 138.25 115.43-2.79 8.7-10.03 13.02-17.17 17.44-17.68 8.51-31.55-2.91-45.94-9.46-36.31-16.5-64.75-41.91-83.25-77.66-5.74-11.09-12.74-22.33-3.91-35.17q6.01-5.28 12.02-10.58z"/>
		<path fill-rule="evenodd" class="s12" d="m255.62 767.98c11.9 61.03 56.13 91.81 108.16 115.03 7.84 3.49 16.6 4.89 24.94 7.26-5.57 8.02-13.04 13.76-21.73 18.02-62.11-21.95-104.49-65.57-134.6-122.66z"/>
		<path fill-rule="evenodd" class="s13" d="m407.33 843.76c-30.96 7.82-50.23-14.45-72.43-28.58-26.46-16.82-31.78-49.56-52.08-71.16 7.29-10.44 14.62-20.85 25.3-28.27 12.05 26.7 16.13 57.48 42.44 76.77 10.86 7.97 20.5 17.45 33.5 22.09 12.25 6.14 17.54 17.82 23.27 29.15z"/>
		<path fill-rule="evenodd" class="s14" d="m447.7 576.34c27.77-10.81 46.43 7.74 65.43 21.81 24.37 18.05 39.91 43.43 51.35 71.28-4.3 7.47-9.26 14.3-17.15 18.43-10.58-6.45-13.86-18.02-18.69-28.12-13.55-28.35-39.68-43.02-63.52-60.28-9.02-5.29-16.64-11.62-17.42-23.12z"/>
		<path fill-rule="evenodd" class="s15" d="m384.06 814.61c-7.17 9.83-14.84 2.7-19.8-1.26-31.4-25.03-59.73-52.27-56.14-97.6q2.45-3.18 4.9-6.38c30.31 30.61 48.01 69.72 71.04 105.24z"/>
		<path fill-rule="evenodd" class="s16" d="m465.12 599.46c47.75 10.54 68.51 46.18 82.21 88.39l-12.39 16.34c-28.67-31.31-47.42-69.25-69.82-104.73z"/>
		<path fill-rule="evenodd" class="s17" d="m1134.33 843.98c-63.22 0-63.22 0-63.22-61.9 0-42.93 0-42.95 44.39-42.92 21.33 0.01 42.7-0.87 63.96 0.4 31.53 1.88 53.82 25.95 52.35 54.63-1.47 28.69-22.97 48.75-53.86 49.71-14.52 0.46-29.08 0.08-43.62 0.08z"/>
		<path fill-rule="evenodd" class="s18" d="m1125.35 664.39c10.64 0 21.31 0.45 31.91-0.24 29.14-1.9 49.39-21.91 50.64-49.4 1.29-28.56-18.86-51.92-48.46-54.84-12.45-1.23-25.12-0.33-37.7-0.33-50.63-0.02-50.63-0.01-50.63 51.52 0 53.29 0 53.3 54.24 53.29zm897.95 100.99c0.78-34.82-28.23-65.72-62.85-66.94-35.29-1.25-67.88 30.01-67.95 65.2-0.08 34.12 30.57 65.17 64.76 65.6 34.74 0.43 65.27-29.08 66.04-63.86z"/>
	</g>
</svg>